<svg xmlns="http://www.w3.org/2000/svg" style="display:none">
  <symbol id="icon-bell" viewBox="0 0 24 24">
    <path fill="currentColor" d="M12 2a7 7 0 0 0-7 7v3.586l-1.707 1.707A1 1 0 0 0 4 16h16a1 1 0 0 0 .707-1.707L19 12.586V9a7 7 0 0 0-7-7zm0 20a3 3 0 0 0 3-3H9a3 3 0 0 0 3 3z"/>
  </symbol>
  <symbol id="icon-user" viewBox="0 0 24 24">
    <path fill="currentColor" d="M12 12a5 5 0 1 0-5-5 5 5 0 0 0 5 5zm0 2c-5 0-9 2.5-9 5.5V22h18v-2.5C21 16.5 17 14 12 14z"/>
  </symbol>
  <symbol id="icon-building" viewBox="0 0 24 24">
    <path fill="currentColor" d="M3 22h18v-2H3v2zm2-4h14V2H5v16zm2-2V4h10v12H7z"/>
  </symbol>
</svg>